<svg width="36" height="36" viewBox="0 0 36 36" fill="none" xmlns="http://www.w3.org/2000/svg">
  <rect width="36" height="36" rx="18" fill="#318DDE"/>
  <path d="M14.625 5.5L18.75 4.75L21.75 6.25L23.25 8.875L26.625 12.25L25.875 13.75L24 15.25L18.375 15.625L13.875 15.25L10.125 14.125L9.375 11.5L14.625 5.5Z" fill="white"/>
  <path d="M13.9567 5.464C15.0812 4.52378 16.5153 4.00451 18 4C21.0262 4 23.5384 6.18182 23.8118 8.99527C25.6028 9.24073 27 10.6949 27 12.4796C27 14.4389 25.3148 16 23.2729 16H13.2536C10.9215 16 9 14.2175 9 11.9833C9 10.06 10.4243 8.46727 12.3098 8.06364C12.4706 7.12218 13.095 6.184 13.9567 5.464ZM14.6914 6.28982C13.8397 7.00218 13.3942 7.86073 13.3942 8.53273V9.02145L12.8936 9.07491C11.322 9.24182 10.125 10.4931 10.125 11.9833C10.125 13.5836 11.5087 14.9091 13.2536 14.9091H23.2729C24.7275 14.9091 25.875 13.8051 25.875 12.4796C25.875 11.1531 24.7275 10.0491 23.2729 10.0491H22.7104V9.50364C22.7115 7.08182 20.619 5.09091 18 5.09091C16.7849 5.09562 15.6114 5.52011 14.6914 6.28982Z" fill="white"/>
  <path d="M4.40227 27V18.6H8.17027C9.14227 18.6 9.87427 18.852 10.3663 19.344C10.7383 19.716 10.9303 20.184 10.9303 20.736V20.76C10.9303 21.78 10.3543 22.308 9.73027 22.632C10.7263 22.98 11.3983 23.52 11.3983 24.672V24.696C11.3983 26.196 10.1623 27 8.29027 27H4.40227ZM9.45427 21V20.976C9.45427 20.304 8.93827 19.908 7.97827 19.908H5.85427V22.14H7.87027C8.83027 22.14 9.45427 21.768 9.45427 21ZM9.92227 24.54V24.516C9.92227 23.796 9.35827 23.388 8.19427 23.388H5.85427V25.692H8.30227C9.31027 25.692 9.92227 25.308 9.92227 24.54ZM15.1546 27.06L12.2386 18.6H13.8346L15.8386 24.828L17.9026 18.576H19.1506L21.2146 24.828L23.2186 18.6H24.7666L21.8506 27.06H20.5666L18.5026 21.024L16.4386 27.06H15.1546ZM28.8492 27.144C27.5532 27.144 26.5692 26.628 25.7652 25.86L26.6772 24.792C27.3492 25.416 28.0572 25.8 28.8372 25.8C29.8452 25.8 30.5052 25.224 30.5052 24.348V24.324C30.5052 23.46 29.7852 22.932 28.7652 22.932C28.1532 22.932 27.6492 23.1 27.2172 23.304L26.3292 22.716L26.5692 18.6H31.5972V19.92H27.8412L27.7092 21.876C28.1052 21.732 28.4772 21.636 29.0412 21.636C30.6732 21.636 31.9692 22.5 31.9692 24.276V24.3C31.9692 26.016 30.7092 27.144 28.8492 27.144Z" fill="white"/>
</svg>
