<svg width="36" height="36" viewBox="0 0 36 36" fill="none" xmlns="http://www.w3.org/2000/svg">
  <rect width="36" height="36" rx="18" fill="#318DDE"/>
  <path d="M14.625 5.5L18.75 4.75L21.75 6.25L23.25 8.875L26.625 12.25L25.875 13.75L24 15.25L18.375 15.625L13.875 15.25L10.125 14.125L9.375 11.5L14.625 5.5Z" fill="white"/>
  <path d="M13.9567 5.464C15.0812 4.52378 16.5153 4.00451 18 4C21.0262 4 23.5384 6.18182 23.8118 8.99527C25.6028 9.24073 27 10.6949 27 12.4796C27 14.4389 25.3148 16 23.2729 16H13.2536C10.9215 16 9 14.2175 9 11.9833C9 10.06 10.4243 8.46727 12.3098 8.06364C12.4706 7.12218 13.095 6.184 13.9567 5.464ZM14.6914 6.28982C13.8397 7.00218 13.3942 7.86073 13.3942 8.53273V9.02145L12.8936 9.07491C11.322 9.24182 10.125 10.4931 10.125 11.9833C10.125 13.5836 11.5087 14.9091 13.2536 14.9091H23.2729C24.7275 14.9091 25.875 13.8051 25.875 12.4796C25.875 11.1531 24.7275 10.0491 23.2729 10.0491H22.7104V9.50364C22.7115 7.08182 20.619 5.09091 18 5.09091C16.7849 5.09562 15.6114 5.52011 14.6914 6.28982Z" fill="white"/>
  <path d="M4.20305 27V18.6H7.97105C8.94305 18.6 9.67505 18.852 10.167 19.344C10.539 19.716 10.731 20.184 10.731 20.736V20.76C10.731 21.78 10.155 22.308 9.53105 22.632C10.527 22.98 11.199 23.52 11.199 24.672V24.696C11.199 26.196 9.96305 27 8.09105 27H4.20305ZM9.25505 21V20.976C9.25505 20.304 8.73905 19.908 7.77905 19.908H5.65505V22.14H7.67105C8.63105 22.14 9.25505 21.768 9.25505 21ZM9.72305 24.54V24.516C9.72305 23.796 9.15905 23.388 7.99505 23.388H5.65505V25.692H8.10305C9.11105 25.692 9.72305 25.308 9.72305 24.54ZM14.9554 27.06L12.0394 18.6H13.6354L15.6394 24.828L17.7034 18.576H18.9514L21.0154 24.828L23.0194 18.6H24.5674L21.6514 27.06H20.3674L18.3034 21.024L16.2394 27.06H14.9554ZM29.046 27.144C28.002 27.144 27.27 26.82 26.706 26.256C26.07 25.62 25.686 24.744 25.686 23.052V23.028C25.686 20.472 26.91 18.456 29.286 18.456C30.378 18.456 31.122 18.804 31.854 19.392L31.062 20.544C30.474 20.076 29.994 19.8 29.238 19.8C27.762 19.8 27.258 21.324 27.222 22.476C27.714 21.96 28.326 21.624 29.238 21.624C30.87 21.624 32.166 22.584 32.166 24.264V24.288C32.166 25.968 30.81 27.144 29.046 27.144ZM29.01 25.86C30.066 25.86 30.69 25.212 30.69 24.348V24.324C30.69 23.472 30.03 22.86 28.974 22.86C27.93 22.86 27.27 23.532 27.27 24.336V24.36C27.27 25.224 27.954 25.86 29.01 25.86Z" fill="white"/>
</svg>
