<svg width="36" height="36" viewBox="0 0 36 36" fill="none" xmlns="http://www.w3.org/2000/svg">
    <rect x="0.5" y="0.5" width="35" height="35" rx="17.5" stroke="#1774E5"/>
    <path d="M13.2013 14V15.1H9.24133V16.92H12.7513V18.02H9.24133V19.9H13.2513V21H8.01133V14H13.2013ZM20.3605 15.98L18.1505 19.28H18.1105L15.9205 16V21H14.7105V14H16.0205L18.1505 17.31L20.2805 14H21.5905V21H20.3605V15.98ZM24.4322 15.83C24.4322 15.97 24.4555 16.09 24.5022 16.19C24.5489 16.29 24.6322 16.3833 24.7522 16.47C24.8789 16.5567 25.0489 16.6367 25.2622 16.71C25.4822 16.7833 25.7589 16.86 26.0922 16.94C26.4589 17.0333 26.7822 17.1367 27.0622 17.25C27.3489 17.3633 27.5855 17.5033 27.7722 17.67C27.9589 17.83 28.0989 18.02 28.1922 18.24C28.2922 18.4533 28.3422 18.7067 28.3422 19C28.3422 19.3333 28.2789 19.63 28.1522 19.89C28.0322 20.15 27.8622 20.37 27.6422 20.55C27.4222 20.73 27.1589 20.8667 26.8522 20.96C26.5455 21.0533 26.2089 21.1 25.8422 21.1C25.3022 21.1 24.7855 21.01 24.2922 20.83C23.7989 20.6433 23.3422 20.36 22.9222 19.98L23.6622 19.1C24.0022 19.3933 24.3455 19.62 24.6922 19.78C25.0389 19.9333 25.4322 20.01 25.8722 20.01C26.2522 20.01 26.5522 19.93 26.7722 19.77C26.9989 19.61 27.1122 19.3933 27.1122 19.12C27.1122 18.9933 27.0889 18.88 27.0422 18.78C27.0022 18.68 26.9222 18.59 26.8022 18.51C26.6889 18.4233 26.5289 18.3433 26.3222 18.27C26.1222 18.1967 25.8589 18.12 25.5322 18.04C25.1589 17.9533 24.8255 17.8567 24.5322 17.75C24.2455 17.6433 24.0022 17.51 23.8022 17.35C23.6089 17.19 23.4589 16.9967 23.3522 16.77C23.2522 16.5433 23.2022 16.2667 23.2022 15.94C23.2022 15.6333 23.2622 15.3567 23.3822 15.11C23.5022 14.8567 23.6655 14.64 23.8722 14.46C24.0855 14.28 24.3389 14.1433 24.6322 14.05C24.9255 13.95 25.2455 13.9 25.5922 13.9C26.1055 13.9 26.5655 13.9767 26.9722 14.13C27.3855 14.2767 27.7722 14.4933 28.1322 14.78L27.4722 15.71C27.1522 15.4767 26.8355 15.3 26.5222 15.18C26.2089 15.0533 25.8922 14.99 25.5722 14.99C25.2122 14.99 24.9322 15.0733 24.7322 15.24C24.5322 15.4 24.4322 15.5967 24.4322 15.83Z" fill="#1774E5"/>
</svg>
