<svg width="36" height="36" viewBox="0 0 36 36" fill="none" xmlns="http://www.w3.org/2000/svg">
    <circle cx="18" cy="18" r="17.5" stroke="#1774E5"/>
    <path fill-rule="evenodd" clip-rule="evenodd" d="M11.7818 17.5322C13.7598 19.2566 15.3535 20.2915 16.5078 20.9239C15.5732 20.3492 14.4195 19.6019 13.3204 18.567C11.5069 16.957 7.27554 11.9558 8.31945 7.52916C8.70422 6.03457 9.3087 7.29931 9.47375 7.52916C9.63827 7.75902 11.0123 10.691 12.606 13.5653C13.375 14.9449 14.1446 16.2097 14.9141 17.3023C14.4741 16.3823 14.2544 15.6922 14.1446 15.2903C13.6499 13.3932 13.5953 11.5532 13.9249 10.5761C14.2544 9.65613 14.6944 9.48346 14.8589 9.48346C15.0786 9.5412 14.8042 11.7259 15.8482 15.9798C16.2329 17.6471 17.0571 19.5442 17.6069 20.7512C17.7168 20.1188 17.9365 19.5442 18.3213 19.0845C18.4858 18.7969 18.7055 18.567 18.9804 18.3372C19.5849 17.8197 20.2993 17.4172 21.1787 17.3023C20.6294 17.0147 20.1347 16.7271 20.0795 16.7271C20.0795 16.7271 19.9145 16.6699 19.9697 16.4973C20.0249 16.3246 20.4643 16.3823 21.7285 17.1296C20.684 16.4401 20.5195 16.3246 20.5195 16.3246L20.4091 16.2674C20.4091 16.2674 20.2993 16.2097 20.4091 16.1525C20.4643 16.0947 20.684 16.0947 20.9589 16.2097C21.124 16.3246 21.4536 16.4973 21.7285 16.6699C21.3984 16.3823 21.3437 16.3823 21.3437 16.3823L21.0688 16.1525C21.0688 16.1525 21.0136 16.0947 21.0688 16.0376C21.124 15.9798 21.2885 15.9798 21.5082 16.1525C21.6733 16.3246 22.5527 17.1874 22.6073 17.3595C23.2118 17.4172 24.036 17.8197 24.476 18.4521C24.6405 18.3372 24.8055 18.2795 24.9706 18.3372H25.0805H25.1903C25.245 18.3372 25.245 18.3372 25.245 18.3944L25.3002 18.4521L25.3554 18.5093L25.41 18.567C25.6849 18.8541 25.7396 19.2566 25.5199 19.5442C26.6742 19.2566 27.8832 19.1417 29.1468 19.1417C31.2351 19.1417 33.2137 19.5442 35.0271 20.2915C33.6531 19.889 32.2244 19.7169 30.7405 19.7169C28.9823 19.7169 27.2787 20.0039 25.6849 20.5213C25.5199 20.5791 25.3002 20.6363 25.1351 20.694C24.476 21.0388 23.8715 21.4413 23.267 21.9587C23.2118 22.0159 23.2118 22.0159 23.1572 22.0737C22.7724 22.706 22.333 23.3962 21.7285 24.2006C20.9037 25.4082 19.8046 25.753 18.4311 25.753C17.6069 25.753 17.167 25.5803 16.5625 25.2355C16.4526 25.3504 15.4634 25.9828 15.1885 26.1555C14.9141 26.3276 14.6944 26.2704 14.6392 26.2127C14.584 26.1555 14.6392 26.0977 14.6392 26.0977L15.024 25.8679C15.024 25.8679 15.0786 25.8679 15.5186 25.5231C15.1338 25.6952 14.6392 25.9256 14.4741 25.9828C14.0899 26.1555 13.815 26.0977 13.7598 25.9828C13.7051 25.9256 13.7598 25.8679 13.815 25.8107C13.8697 25.8107 13.9795 25.753 13.9795 25.753C13.9795 25.753 14.1998 25.638 15.6831 25.0057C13.9249 25.753 13.3204 25.6952 13.2652 25.5231C13.2105 25.3504 13.4302 25.2933 13.4854 25.2933C13.4854 25.2933 14.584 24.8907 15.4634 24.6031L15.4087 24.546C15.4634 23.9708 15.5186 23.5683 15.9034 22.9359C14.4741 23.5683 12.441 23.9708 10.298 23.5111C8.70422 23.1657 7.98988 22.3035 8.15493 21.9587C8.37465 21.4413 12.3311 22.0737 14.9688 22.1314C12.8257 22.0159 9.74813 21.3264 7.71497 19.889C6.34148 18.9118 6.06657 17.8769 6.34148 17.6471C6.78091 17.2446 10.9024 19.774 13.2652 20.8089C14.1998 21.2114 15.2989 21.499 16.0679 21.614C15.4634 21.499 14.7491 21.3264 13.9249 20.9816C11.7818 20.1188 6.34148 17.3023 5.84686 12.9329C5.737 11.611 6.67105 12.4732 6.89077 12.703C7.77016 13.5653 9.47375 15.5201 11.7818 17.5322Z" fill="#1774E5"/>
</svg>
